<svg width="269" height="79" viewBox="0 0 269 79" fill="none" xmlns="http://www.w3.org/2000/svg">
<g clip-path="url(#clip0_28_51)">
<path d="M209.166 39.8348H208.63C171.452 39.8348 134.275 39.8348 97.0975 39.8445C96.7077 39.8445 96.5479 39.718 96.3978 39.3744C92.5685 30.5978 88.7246 21.8262 84.8838 13.0529C84.8349 12.9394 84.7762 12.8308 84.6882 12.6509C84.3832 13.3528 84.0994 13.998 83.8221 14.6464C81.4509 20.2019 79.0779 25.7589 76.7164 31.3176C76.5908 31.611 76.4539 31.7407 76.1081 31.7342C74.8344 31.7099 73.5607 31.7245 72.2234 31.7245C72.2853 31.5591 72.3261 31.4343 72.3783 31.3144C75.7999 23.5283 79.2231 15.7423 82.6365 7.95139C82.7572 7.67418 82.9007 7.58502 83.1943 7.58989C84.2315 7.6061 85.2687 7.6142 86.3043 7.58665C86.6485 7.57692 86.7871 7.70661 86.9143 7.9984C91.0274 17.3212 95.1519 26.6376 99.2633 35.9604C99.3954 36.2603 99.5389 36.3689 99.8765 36.3673C134.994 36.3592 170.112 36.3592 205.228 36.3592C205.366 36.3592 205.505 36.3592 205.678 36.3592V3.44641H65.6835V36.364H66.1973C74.213 36.364 82.2288 36.3656 90.2445 36.3575C90.5805 36.3575 90.7599 36.4354 90.8953 36.7693C91.2997 37.7744 91.7515 38.76 92.2049 39.8023H62.1576V0H209.165V39.8348H209.166Z" fill="#1B2B55"/>
<path d="M196.441 27.132C197.336 27.8907 198.218 28.638 199.148 29.4242C198.238 30.4341 197.347 31.423 196.433 32.4362C195.632 31.7245 194.851 31.0307 194.068 30.3385C193.723 30.0337 193.357 30.0008 192.97 30.2396C188.547 32.9711 182.63 32.762 178.501 29.6593C175.567 27.4546 174.001 24.4637 173.703 20.8325C173.409 17.258 174.408 14.0726 176.847 11.4108C179.294 8.7425 182.387 7.4278 186.016 7.36296C189.311 7.30298 192.28 8.22861 194.74 10.4446C197.843 13.2426 199.109 16.7895 198.771 20.9152C198.593 23.0858 197.827 25.0522 196.586 26.8386C196.547 26.8953 196.508 26.9537 196.473 27.0137C196.46 27.0364 196.459 27.0672 196.442 27.132H196.441ZM193.159 24.287C193.28 24.0828 193.388 23.9239 193.473 23.7521C194.653 21.3707 194.727 18.918 193.787 16.4686C191.608 10.7915 184.754 9.68759 180.823 13.2475C177.625 16.1443 177.152 21.3691 179.736 24.9533C181.983 28.0706 186.173 29.1535 189.656 27.513C189.899 27.3979 190.128 27.2552 190.405 27.1012C188.994 25.9081 187.645 24.7669 186.275 23.6062C187.199 22.5622 188.091 21.5539 188.994 20.531C190.397 21.7954 191.762 23.0274 193.156 24.287H193.159Z" fill="#1B2B55"/>
<path d="M101.507 7.78447C101.641 7.77799 101.739 7.76826 101.837 7.76826C105.508 7.7715 109.179 7.74557 112.85 7.78934C114.745 7.81203 116.52 8.28539 118.079 9.44608C120.897 11.5405 121 16.7409 117.469 18.8564C117.255 18.9845 117.046 19.1191 116.807 19.2682C117.373 19.5324 117.911 19.761 118.428 20.0285C120.964 21.3383 121.735 23.4295 121.43 26.0086C121.125 28.5845 119.525 30.1262 117.167 30.9999C115.717 31.5381 114.202 31.7116 112.672 31.7213C109.057 31.7424 105.443 31.7278 101.827 31.7278C101.731 31.7278 101.635 31.7181 101.507 31.71V7.78447ZM105.687 27.9734C105.797 27.9831 105.863 27.9945 105.932 27.9945C108.3 27.9945 110.666 28.0107 113.034 27.988C113.904 27.9799 114.76 27.8226 115.557 27.4368C116.81 26.8305 117.366 25.8238 117.288 24.4637C117.214 23.1831 116.498 22.3628 115.34 21.8846C114.46 21.5215 113.525 21.4242 112.584 21.4177C110.441 21.4032 108.297 21.4129 106.154 21.4145C106.004 21.4145 105.854 21.4275 105.686 21.434V27.9734H105.687ZM105.687 17.8805C107.865 17.8805 109.991 17.9016 112.118 17.8692C112.946 17.8562 113.749 17.6374 114.483 17.2256C115.598 16.5999 116.004 15.6127 115.944 14.3904C115.888 13.2751 115.362 12.4353 114.333 12.0025C113.739 11.7529 113.075 11.5583 112.438 11.5405C110.255 11.4789 108.072 11.5081 105.89 11.5032C105.824 11.5032 105.761 11.5243 105.687 11.5373V17.8789V17.8805Z" fill="#1B2B55"/>
<path d="M155.895 31.7018H151.763V7.79578C151.885 7.78605 152.006 7.76822 152.126 7.76822C155.349 7.76984 158.572 7.74552 161.793 7.78767C163.654 7.81199 165.433 8.23833 167.01 9.27258C169.081 10.6327 170.148 12.5828 170.335 15.0225C170.511 17.3115 170.009 19.3978 168.408 21.1308C167.1 22.546 165.431 23.3354 163.567 23.705C162.695 23.8785 161.794 23.9628 160.902 23.9887C159.39 24.0341 157.877 24.0114 156.364 23.9936C155.998 23.9887 155.884 24.086 155.887 24.4605C155.904 26.7024 155.895 28.9444 155.895 31.1863C155.895 31.35 155.895 31.5121 155.895 31.7002V31.7018ZM155.918 20.2213C156.442 20.2213 156.918 20.2278 157.393 20.2213C158.932 20.1986 160.48 20.2602 162.01 20.1273C164.431 19.9182 166.015 18.2339 166.066 15.9725C166.097 14.593 165.707 13.3885 164.518 12.5488C163.683 11.9603 162.739 11.6458 161.731 11.6134C159.94 11.5567 158.146 11.5778 156.354 11.5405C155.972 11.5324 155.886 11.6588 155.887 12.0171C155.902 14.593 155.894 17.1705 155.895 19.7464C155.895 19.8825 155.909 20.0203 155.918 20.2213Z" fill="#1B2B55"/>
<path d="M144.505 25.2045C145.438 26.1139 146.337 26.9909 147.296 27.9263C146.684 28.4677 146.104 29.0318 145.474 29.5327C143.367 31.2089 140.944 32.0065 138.256 32.1135C134.873 32.2497 131.845 31.3516 129.312 29.0869C126.704 26.7526 125.403 23.7844 125.269 20.3072C125.144 17.0602 126.041 14.1357 128.154 11.6393C130.283 9.12662 133.027 7.72925 136.32 7.43097C139.174 7.1716 141.904 7.57524 144.421 9.02935C145.393 9.59024 146.259 10.2873 147.102 11.0849C146.19 12.1289 145.303 13.1469 144.448 14.1276C143.564 13.5165 142.729 12.8567 141.819 12.325C138.773 10.5451 134.971 10.9114 132.45 13.1955C130.715 14.7663 129.854 16.7538 129.713 19.0606C129.562 21.5684 130.191 23.846 131.912 25.7362C133.725 27.7285 136.027 28.4677 138.691 28.2213C140.761 28.03 142.4 26.9828 143.933 25.7021C144.135 25.5319 144.334 25.3568 144.507 25.2061L144.505 25.2045Z" fill="#1B2B55"/>
<path d="M8.73008 59.0996H4.10491L3.19325 61.2281H1.42212L5.58575 52.0317H7.27697L11.4536 61.2281H9.65642L8.73171 59.0996H8.73008ZM8.16253 57.759L6.4175 53.7387L4.68551 57.759H8.1609H8.16253Z" fill="#1B2B55"/>
<path d="M12.1125 60.2554L12.7078 58.9294C13.4482 59.5211 14.6241 59.9409 15.7608 59.9409C17.2009 59.9409 17.8092 59.4287 17.8092 58.7446C17.8092 56.7604 12.3115 58.0621 12.3115 54.6465C12.3115 53.1616 13.5004 51.9004 16.038 51.9004C17.1487 51.9004 18.3115 52.1889 19.1171 52.7142L18.5757 54.0418C17.7423 53.5555 16.8306 53.3188 16.025 53.3188C14.598 53.3188 14.0158 53.87 14.0158 54.5671C14.0158 56.5253 19.5004 55.2495 19.5004 58.6262C19.5004 60.0982 18.2984 61.3594 15.7608 61.3594C14.3207 61.3594 12.879 60.912 12.1125 60.2554Z" fill="#1B2B55"/>
<path d="M20.6893 60.2554L21.2846 58.9294C22.025 59.5211 23.2008 59.9409 24.3376 59.9409C25.7776 59.9409 26.3859 59.4287 26.3859 58.7446C26.3859 56.7604 20.8883 58.0621 20.8883 54.6465C20.8883 53.1616 22.0772 51.9004 24.6148 51.9004C25.7254 51.9004 26.8883 52.1889 27.6939 52.7142L27.1525 54.0418C26.3191 53.5555 25.4074 53.3188 24.6018 53.3188C23.1748 53.3188 22.5925 53.87 22.5925 54.5671C22.5925 56.5253 28.0772 55.2495 28.0772 58.6262C28.0772 60.0982 26.8752 61.3594 24.3376 61.3594C22.8975 61.3594 21.4558 60.912 20.6893 60.2554Z" fill="#1B2B55"/>
<path d="M29.3851 56.6291C29.3851 53.9105 31.5004 51.9004 34.3675 51.9004C37.2345 51.9004 39.3498 53.8976 39.3498 56.6291C39.3498 59.3606 37.2345 61.3578 34.3675 61.3578C31.5004 61.3578 29.3851 59.3476 29.3851 56.6291ZM37.6194 56.6291C37.6194 54.7502 36.2316 53.3966 34.3675 53.3966C32.5034 53.3966 31.1155 54.7502 31.1155 56.6291C31.1155 58.5079 32.5034 59.8615 34.3675 59.8615C36.2316 59.8615 37.6194 58.5079 37.6194 56.6291Z" fill="#1B2B55"/>
<path d="M40.5126 56.6291C40.5126 53.883 42.6278 51.9004 45.4688 51.9004C46.9758 51.9004 48.2707 52.4386 49.1302 53.4372L48.0195 54.4747C47.346 53.7517 46.5126 53.3966 45.5488 53.3966C43.6325 53.3966 42.2446 54.7373 42.2446 56.6291C42.2446 58.5209 43.6325 59.8615 45.5488 59.8615C46.5142 59.8615 47.346 59.5065 48.0195 58.7705L49.1302 59.821C48.2707 60.8196 46.9758 61.3578 45.4558 61.3578C42.6279 61.3578 40.5126 59.3736 40.5126 56.6291Z" fill="#1B2B55"/>
<path d="M51.0448 52.0317H52.7637V61.2281H51.0448V52.0317Z" fill="#1B2B55"/>
<path d="M61.5248 59.0996H56.8996L55.988 61.2281H54.2169L58.3805 52.0317H60.0717L64.2484 61.2281H62.4511L61.5264 59.0996H61.5248ZM60.9573 57.759L59.2122 53.7387L57.4802 57.759H60.9556H60.9573Z" fill="#1B2B55"/>
<path d="M66.8366 53.4761H63.7705V52.0317H71.6216V53.4761H68.5555V61.2265H66.8366V53.4761Z" fill="#1B2B55"/>
<path d="M72.9165 52.0317H74.6354V61.2281H72.9165V52.0317Z" fill="#1B2B55"/>
<path d="M76.4702 56.6291C76.4702 53.9105 78.5854 51.9004 81.4525 51.9004C84.3196 51.9004 86.4348 53.8976 86.4348 56.6291C86.4348 59.3606 84.3196 61.3578 81.4525 61.3578C78.5854 61.3578 76.4702 59.3476 76.4702 56.6291ZM84.7045 56.6291C84.7045 54.7502 83.3166 53.3966 81.4525 53.3966C79.5884 53.3966 78.2005 54.7502 78.2005 56.6291C78.2005 58.5079 79.5884 59.8615 81.4525 59.8615C83.3166 59.8615 84.7045 58.5079 84.7045 56.6291Z" fill="#1B2B55"/>
<path d="M96.4794 52.0317V61.2281H95.0654L89.964 55.0016V61.2281H88.2598V52.0317H89.6737L94.7751 58.2583V52.0317H96.4794Z" fill="#1B2B55"/>
<path d="M102.611 52.0318H106.656C109.657 52.0318 111.705 53.8717 111.705 56.6291C111.705 59.3866 109.657 61.2265 106.656 61.2265H102.611V52.0302V52.0318ZM106.576 59.7821C108.638 59.7821 109.973 58.5339 109.973 56.6291C109.973 54.7244 108.638 53.4762 106.576 53.4762H104.329V59.7821H106.576Z" fill="#1B2B55"/>
<path d="M120.465 59.7951V61.2265H113.525V52.0302H120.279V53.4616H115.243V55.8527H119.71V57.2581H115.243V59.7935H120.463L120.465 59.7951Z" fill="#1B2B55"/>
<path d="M121.601 60.2554L122.197 58.9294C122.937 59.5211 124.113 59.9409 125.25 59.9409C126.69 59.9409 127.298 59.4287 127.298 58.7446C127.298 56.7604 121.8 58.0621 121.8 54.6465C121.8 53.1616 122.989 51.9004 125.527 51.9004C126.638 51.9004 127.8 52.1889 128.606 52.7142L128.065 54.0418C127.231 53.5555 126.32 53.3188 125.514 53.3188C124.087 53.3188 123.505 53.87 123.505 54.5671C123.505 56.5253 128.989 55.2495 128.989 58.6262C128.989 60.0982 127.787 61.3594 125.25 61.3594C123.81 61.3594 122.368 60.912 121.601 60.2554Z" fill="#1B2B55"/>
<path d="M142.561 58.7317C142.561 60.3073 141.319 61.2281 138.939 61.2281H134.34V52.0317H138.675C140.896 52.0317 142.085 52.9639 142.085 54.4228C142.085 55.3679 141.609 56.065 140.896 56.4459C141.888 56.7604 142.561 57.5369 142.561 58.7317ZM136.059 53.3724V55.9077H138.491C139.68 55.9077 140.355 55.4879 140.355 54.6465C140.355 53.8052 139.681 53.3724 138.491 53.3724H136.059ZM140.829 58.5614C140.829 57.6423 140.13 57.2354 138.833 57.2354H136.057V59.8891H138.833C140.128 59.8891 140.829 59.4822 140.829 58.5614Z" fill="#1B2B55"/>
<path d="M150.926 59.0996H146.301L145.389 61.2281H143.618L147.782 52.0317H149.473L153.65 61.2281H151.853L150.928 59.0996H150.926ZM150.359 57.759L148.614 53.7387L146.882 57.759H150.357H150.359Z" fill="#1B2B55"/>
<path d="M163.045 52.0317V61.2281H161.631L156.53 55.0016V61.2281H154.826V52.0317H156.24L161.341 58.2583V52.0317H163.045Z" fill="#1B2B55"/>
<path d="M173.75 52.0317V61.2281H172.336L167.235 55.0016V61.2281H165.531V52.0317H166.945L172.046 58.2583V52.0317H173.75Z" fill="#1B2B55"/>
<path d="M176.234 52.0317H177.953V61.2281H176.234V52.0317Z" fill="#1B2B55"/>
<path d="M187.388 59.7951V61.2265H180.45V52.0301H187.203V53.4615H182.167V55.8526H186.634V57.2581H182.167V59.7935H187.388V59.7951ZM183.529 51.2828L181.229 49.4834H183.172L184.956 51.2828H183.529Z" fill="#1B2B55"/>
<path d="M195.356 61.2265L193.466 58.5339C193.347 58.5469 193.228 58.5469 193.109 58.5469H191.021V61.2265H189.302V52.0302H193.109C195.54 52.0302 197.047 53.2654 197.047 55.3015C197.047 56.694 196.333 57.7185 195.079 58.2048L197.207 61.2265H195.356ZM193.031 53.4762H191.021V57.1414H193.031C194.537 57.1414 195.317 56.4589 195.317 55.3015C195.317 54.144 194.537 53.4762 193.031 53.4762Z" fill="#1B2B55"/>
<path d="M205.903 59.7951V61.2265H198.965V52.0302H205.719V53.4616H200.683V55.8527H205.15V57.2581H200.683V59.7935H205.903V59.7951Z" fill="#1B2B55"/>
<path d="M207.302 60.2554L207.898 58.9294C208.638 59.5211 209.814 59.9409 210.951 59.9409C212.391 59.9409 212.999 59.4287 212.999 58.7446C212.999 56.7604 207.501 58.0621 207.501 54.6465C207.501 53.1616 208.69 51.9004 211.228 51.9004C212.338 51.9004 213.501 52.1889 214.307 52.7142L213.765 54.0418C212.932 53.5555 212.02 53.3188 211.215 53.3188C209.788 53.3188 209.206 53.87 209.206 54.5671C209.206 56.5253 214.69 55.2495 214.69 58.6262C214.69 60.0982 213.487 61.3594 210.951 61.3594C209.511 61.3594 208.069 60.912 207.302 60.2554Z" fill="#1B2B55"/>
<path d="M226.98 59.7951V61.2265H220.043V52.0302H226.796V53.4616H221.76V55.8527H226.227V57.2581H221.76V59.7935H226.98V59.7951Z" fill="#1B2B55"/>
<path d="M230.774 53.4761H227.708V52.0317H235.559V53.4761H232.493V61.2265H230.774V53.4761Z" fill="#1B2B55"/>
<path d="M240.5 52.0318H244.545C247.546 52.0318 249.594 53.8717 249.594 56.6291C249.594 59.3866 247.546 61.2265 244.545 61.2265H240.5V52.0302V52.0318ZM244.465 59.7821C246.527 59.7821 247.862 58.5339 247.862 56.6291C247.862 54.7244 246.527 53.4762 244.465 53.4762H242.218V59.7821H244.465Z" fill="#1B2B55"/>
<path d="M258.354 59.7951V61.2265H251.416V52.0302H258.169V53.4616H253.133V55.8527H257.6V57.2581H253.133V59.7935H258.354V59.7951Z" fill="#1B2B55"/>
<path d="M259.49 60.2554L260.086 58.9294C260.826 59.5211 262.002 59.9409 263.139 59.9409C264.579 59.9409 265.187 59.4287 265.187 58.7446C265.187 56.7604 259.689 58.0621 259.689 54.6465C259.689 53.1616 260.878 51.9004 263.416 51.9004C264.526 51.9004 265.689 52.1889 266.495 52.7142L265.953 54.0418C265.12 53.5555 264.208 53.3188 263.403 53.3188C261.976 53.3188 261.394 53.87 261.394 54.5671C261.394 56.5253 266.878 55.2495 266.878 58.6262C266.878 60.0982 265.675 61.3594 263.139 61.3594C261.699 61.3594 260.257 60.912 259.49 60.2554Z" fill="#1B2B55"/>
<path d="M0 72.3925C0 69.6464 2.11525 67.6638 4.95623 67.6638C6.46316 67.6638 7.75808 68.202 8.61755 69.2006L7.50692 70.2381C6.83337 69.5151 5.99999 69.1601 5.03615 69.1601C3.11987 69.1601 1.73199 70.5007 1.73199 72.3925C1.73199 74.2843 3.11987 75.6249 5.03615 75.6249C6.00162 75.6249 6.83337 75.2699 7.50692 74.5339L8.61755 75.5844C7.75808 76.583 6.46316 77.1212 4.94319 77.1212C2.11525 77.1212 0 75.137 0 72.3925Z" fill="#1B2B55"/>
<path d="M18.4892 67.795V76.9914H16.7703V73.0506H11.9853V76.9914H10.2664V67.795H11.9853V71.5916H16.7703V67.795H18.4892Z" fill="#1B2B55"/>
<path d="M26.9731 74.8629H22.3479L21.4362 76.9914H19.6651L23.8287 67.795H25.52L29.6966 76.9914H27.8994L26.9747 74.8629H26.9731ZM26.4055 73.5223L24.6605 69.502L22.9285 73.5223H26.4039H26.4055Z" fill="#1B2B55"/>
<path d="M34.2549 67.0461H32.8931L31.7303 66.0735L30.5675 67.0461H29.2057L30.9769 65.2467H32.4838L34.2549 67.0461ZM30.8709 67.795H32.5898V76.9914H30.8709V67.795Z" fill="#1B2B55"/>
<path d="M43.3079 67.795V76.9914H41.894L36.7926 70.7649V76.9914H35.0883V67.795H36.5023L41.6037 74.0216V67.795H43.3079Z" fill="#1B2B55"/>
<path d="M52.7295 75.5584V76.9898H45.7901V67.7935H52.5436V69.2249H47.5074V71.616H51.9744V73.0214H47.5074V75.5568H52.7279L52.7295 75.5584Z" fill="#1B2B55"/>
<path d="M53.8662 76.0189L54.4615 74.6928C55.2019 75.2845 56.3778 75.7044 57.5145 75.7044C58.9545 75.7044 59.5629 75.1921 59.5629 74.508C59.5629 72.5238 54.0652 73.8255 54.0652 70.4099C54.0652 68.925 55.2541 67.6638 57.7917 67.6638C58.9024 67.6638 60.0652 67.9524 60.8708 68.4776L60.3294 69.8053C59.496 69.3189 58.5843 69.0823 57.7787 69.0823C56.3517 69.0823 55.7694 69.6334 55.7694 70.3305C55.7694 72.2888 61.2541 71.013 61.2541 74.3897C61.2541 75.8616 60.0521 77.1228 57.5145 77.1228C56.0744 77.1228 54.6327 76.6754 53.8662 76.0189Z" fill="#1B2B55"/>
<path d="M66.605 67.7951H70.6496C73.6504 67.7951 75.6988 69.635 75.6988 72.3925C75.6988 75.1499 73.6504 76.9898 70.6496 76.9898H66.605V67.7935V67.7951ZM70.5696 75.5454C72.6311 75.5454 73.9668 74.2972 73.9668 72.3925C73.9668 70.4877 72.6311 69.2395 70.5696 69.2395H68.3223V75.5454H70.5696Z" fill="#1B2B55"/>
<path d="M84.4598 75.5584V76.9898H77.5204V67.7935H84.2739V69.2249H79.2378V71.616H83.7047V73.0214H79.2378V75.5568H84.4582L84.4598 75.5584Z" fill="#1B2B55"/>
<path d="M97.7678 71.0664C97.7678 73.0895 96.2608 74.3377 93.8292 74.3377H91.7417V76.9914H90.0227V67.795H93.8292C96.2608 67.795 97.7678 69.0303 97.7678 71.0664ZM96.0358 71.0664C96.0358 69.9106 95.2562 69.241 93.7493 69.241H91.7401V72.8933H93.7493C95.2562 72.8933 96.0358 72.2238 96.0358 71.068V71.0664Z" fill="#1B2B55"/>
<path d="M107.706 67.795V76.9914H105.987V73.0506H101.202V76.9914H99.4834V67.795H101.202V71.5916H105.987V67.795H107.706Z" fill="#1B2B55"/>
<path d="M116.19 74.8629H111.565L110.653 76.9914H108.882L113.046 67.795H114.737L118.914 76.9914H117.116L116.192 74.8629H116.19ZM115.623 73.5223L113.878 69.502L112.146 73.5223H115.621H115.623Z" fill="#1B2B55"/>
<path d="M126.142 76.9898L124.252 74.2972C124.133 74.3102 124.013 74.3102 123.894 74.3102H121.807V76.9898H120.088V67.7935H123.894C126.326 67.7935 127.833 69.0287 127.833 71.0648C127.833 72.4573 127.119 73.4818 125.863 73.9681L127.991 76.9898H126.14H126.142ZM123.816 69.2395H121.807V72.9047H123.816C125.323 72.9047 126.103 72.2222 126.103 71.0648C126.103 69.9073 125.323 69.2395 123.816 69.2395Z" fill="#1B2B55"/>
<path d="M138.246 76.9898L138.233 70.8945L135.193 75.9393H134.427L131.387 70.974V76.9914H129.748V67.795H131.162L134.836 73.8903L138.443 67.795H139.857L139.87 76.9914H138.244L138.246 76.9898Z" fill="#1B2B55"/>
<path d="M148.369 74.8629H143.744L142.832 76.9914H141.061L145.225 67.795H146.916L151.093 76.9914H149.295L148.371 74.8629H148.369ZM147.801 73.5223L146.056 69.502L144.324 73.5223H147.8H147.801Z" fill="#1B2B55"/>
<path d="M151.474 72.3925C151.474 69.6464 153.589 67.6638 156.43 67.6638C157.937 67.6638 159.232 68.202 160.092 69.2006L158.981 70.2381C158.308 69.5151 157.474 69.1601 156.51 69.1601C154.594 69.1601 153.206 70.5007 153.206 72.3925C153.206 74.2843 154.594 75.6249 156.51 75.6249C157.476 75.6249 158.308 75.2699 158.981 74.5339L160.092 75.5844C159.232 76.583 157.937 77.1212 156.417 77.1212C153.589 77.1212 151.474 75.137 151.474 72.3925Z" fill="#1B2B55"/>
<path d="M161.744 67.795H163.463V76.9914H161.744V67.795Z" fill="#1B2B55"/>
<path d="M172.897 75.5584V76.9898H165.96V67.7935H172.713V69.2249H167.677V71.616H172.144V73.0214H167.677V75.5568H172.897V75.5584Z" fill="#1B2B55"/>
<path d="M174.032 76.0189L174.628 74.6928C175.368 75.2845 176.544 75.7044 177.681 75.7044C179.121 75.7044 179.729 75.1921 179.729 74.508C179.729 72.5238 174.231 73.8255 174.231 70.4099C174.231 68.925 175.42 67.6638 177.958 67.6638C179.069 67.6638 180.231 67.9524 181.037 68.4776L180.496 69.8053C179.662 69.3189 178.751 69.0823 177.945 69.0823C176.518 69.0823 175.936 69.6334 175.936 70.3305C175.936 72.2888 181.42 71.013 181.42 74.3897C181.42 75.8616 180.217 77.1228 177.681 77.1228C176.241 77.1228 174.799 76.6754 174.032 76.0189Z" fill="#1B2B55"/>
<path d="M186.773 67.7951H190.817C193.818 67.7951 195.867 69.635 195.867 72.3925C195.867 75.1499 193.818 76.9898 190.817 76.9898H186.773V67.7935V67.7951ZM190.738 75.5454C192.799 75.5454 194.135 74.2972 194.135 72.3925C194.135 70.4877 192.799 69.2395 190.738 69.2395H188.49V75.5454H190.738Z" fill="#1B2B55"/>
<path d="M197.61 72.9841V67.795H199.329V72.9193C199.329 74.8111 200.188 75.6249 201.681 75.6249C203.173 75.6249 204.019 74.8111 204.019 72.9193V67.795H205.711V72.9841C205.711 75.6638 204.191 77.1227 201.666 77.1227C199.141 77.1227 197.608 75.6638 197.608 72.9841H197.61Z" fill="#1B2B55"/>
<path d="M221.53 77.9106C220.922 78.6206 220.09 79.0016 219.111 79.0016C217.856 79.0016 216.918 78.5153 215.556 77.0968C212.966 76.8731 211.102 74.9424 211.102 72.3941C211.102 69.6755 213.217 67.6654 216.085 67.6654C218.952 67.6654 221.067 69.6626 221.067 72.3941C221.067 74.615 219.666 76.3479 217.605 76.9266C218.133 77.4908 218.609 77.7015 219.151 77.7015C219.759 77.7015 220.287 77.4519 220.736 76.9655L221.528 77.9106H221.53ZM216.085 75.6249C217.949 75.6249 219.337 74.2713 219.337 72.3925C219.337 70.5136 217.949 69.16 216.085 69.16C214.22 69.16 212.833 70.5136 212.833 72.3925C212.833 74.2713 214.22 75.6249 216.085 75.6249Z" fill="#1B2B55"/>
<path d="M222.81 72.9841V67.795H224.529V72.9193C224.529 74.8111 225.389 75.6249 226.881 75.6249C228.373 75.6249 229.22 74.8111 229.22 72.9193V67.795H230.911V72.9841C230.911 75.6638 229.391 77.1227 226.866 77.1227C224.342 77.1227 222.809 75.6638 222.809 72.9841H222.81Z" fill="#1B2B55"/>
<path d="M240.256 75.5584V76.9898H233.318V67.7934H240.072V69.2248H235.035V71.6159H239.502V73.0214H235.035V75.5568H240.256V75.5584ZM237.032 67.0461H235.605L237.389 65.2467H239.331L237.032 67.0461Z" fill="#1B2B55"/>
<path d="M250.392 74.495C250.392 76.0707 249.149 76.9914 246.77 76.9914H242.17V67.795H246.505C248.727 67.795 249.915 68.7272 249.915 70.1861C249.915 71.1312 249.439 71.8283 248.727 72.2092C249.718 72.5237 250.392 73.3002 250.392 74.495ZM243.889 69.1357V71.671H246.321C247.51 71.671 248.185 71.2512 248.185 70.4098C248.185 69.5685 247.512 69.1357 246.321 69.1357H243.889ZM248.66 74.3247C248.66 73.4056 247.96 72.9987 246.663 72.9987H243.888V75.6524H246.663C247.958 75.6524 248.66 75.2455 248.66 74.3247Z" fill="#1B2B55"/>
<path d="M259.167 75.5584V76.9898H252.23V67.7935H258.983V69.2249H253.947V71.616H258.414V73.0214H253.947V75.5568H259.167V75.5584Z" fill="#1B2B55"/>
<path d="M260.382 72.3925C260.382 69.6464 262.498 67.6638 265.339 67.6638C266.846 67.6638 268.141 68.202 269 69.2006L267.889 70.2381C267.216 69.5151 266.382 69.1601 265.419 69.1601C263.502 69.1601 262.114 70.5007 262.114 72.3925C262.114 74.2843 263.502 75.6249 265.419 75.6249C266.384 75.6249 267.216 75.2699 267.889 74.5339L269 75.5844C268.141 76.583 266.846 77.1212 265.326 77.1212C262.498 77.1212 260.382 75.137 260.382 72.3925Z" fill="#1B2B55"/>
</g>
<defs>
<clipPath id="clip0_28_51">
<rect width="269" height="79" fill="white"/>
</clipPath>
</defs>
</svg>
